<svg width="32" height="33" viewBox="0 0 32 33" fill="none" xmlns="http://www.w3.org/2000/svg">
<g clip-path="url(#clip0_2_623)">
<g clip-path="url(#clip1_2_623)">
<g clip-path="url(#clip2_2_623)">
<g clip-path="url(#clip3_2_623)">
<path d="M10.6705 16.6881C11.0644 16.6066 11.4761 16.4278 11.8644 16.1475C12.981 15.3398 13.4766 14.0135 12.9702 13.1838C12.4196 12.2812 10.9134 12.3419 9.75601 13.3691C8.64922 14.3247 8.41309 15.3232 8.41309 16.3726C8.41309 17.1141 8.65025 18.4382 10.099 19.588C10.7831 19.0594 11.5986 18.6246 12.5243 18.3102L12.5365 18.3057C11.8253 18.0093 10.8981 17.4243 10.6705 16.6881ZM10.4918 14.1359C10.4918 13.8259 10.7389 13.5766 11.0436 13.5766C11.348 13.5766 11.5953 13.8271 11.5953 14.1371C11.5953 14.4472 11.348 14.6965 11.0436 14.6965C10.7389 14.6965 10.4918 14.446 10.4918 14.1359Z" fill="#0061FF"/>
</g>
</g>
<g clip-path="url(#clip4_2_623)">
<g clip-path="url(#clip5_2_623)">
<path d="M23.6074 16.3733C23.6041 15.3228 23.3691 14.3243 22.2613 13.3687C21.1048 12.3425 19.5976 12.2796 19.047 13.1834C18.5416 14.0131 19.0359 15.3395 20.1525 16.1471C20.541 16.4274 20.9526 16.6061 21.3465 16.6878C21.2097 17.1302 20.7937 17.5804 20.1593 17.96C19.2869 18.4807 18.8157 18.5451 13.2341 20.3985C11.1686 21.1003 9.93945 22.4949 9.93945 24.1292C9.93945 25.2933 10.5341 26.1914 11.3605 26.8491C11.8803 26.3139 12.5292 25.8495 13.2872 25.4775C12.4144 25.0362 12.1451 24.7018 12.1451 24.1292C12.1451 23.184 14.0344 22.6436 14.906 22.356V24.7483L17.1128 23.7639V22.3571C17.9858 22.6462 19.8702 23.1859 19.8702 24.1292C19.8702 25.6984 15.3767 26.6238 13.4649 27.9426C12.537 28.5859 12.038 29.4036 12.038 30.3646C12.038 30.9163 12.1021 31.6004 13.0709 32.2801C13.3456 32.4995 13.7272 32.179 13.5488 31.8706C12.9087 30.5896 13.5884 29.9497 14.9081 29.3957V31.2472C14.9081 31.8563 15.4025 32.3506 16.0115 32.3506C16.6206 32.3506 17.115 31.8563 17.115 31.2472V29.3968C18.3827 29.9286 19.1806 30.6801 18.471 31.8706C18.2952 32.173 18.6697 32.5022 18.9477 32.2801C19.8856 31.5694 19.9596 30.9603 19.9596 30.3789C19.9596 29.4841 19.4697 28.6157 18.5406 27.9503C20.4186 27.2717 22.0803 26.1297 22.0803 24.1314C22.0803 22.751 21.2032 21.5417 19.6871 20.7759C20.3953 20.521 20.7517 20.35 21.2251 20.0676C23.2985 18.8284 23.6074 17.2208 23.6074 16.3733ZM20.9748 14.6961C20.6701 14.6961 20.4231 14.4456 20.4231 14.1356C20.4231 13.8255 20.6701 13.575 20.9748 13.575C21.2792 13.575 21.5265 13.8255 21.5265 14.1356C21.5265 14.4456 21.2792 14.6961 20.9748 14.6961Z" fill="#0061FF"/>
</g>
</g>
<g clip-path="url(#clip6_2_623)">
<g clip-path="url(#clip7_2_623)">
<path d="M31.4476 2.56199H23.8908C22.4084 2.56199 21.296 3.21728 20.339 4.17435C19.2993 5.21404 18.7587 7.52521 17.1032 7.52521V4.46062C17.7601 4.07835 18.2066 3.37472 18.2066 2.55985C18.2066 1.34106 17.2186 0.353027 15.9998 0.353027C14.7809 0.353027 13.793 1.34106 13.793 2.55985C13.793 3.37465 14.2394 4.07829 14.8964 4.46062V17.6109C15.5774 17.3936 16.3248 17.1543 17.1032 16.9043V11.3772C17.5819 11.137 17.9682 10.7487 18.2051 10.2681C18.5889 10.9241 19.3185 11.3893 20.1318 11.3893C20.9567 11.3893 21.6673 10.9313 22.0459 10.2611C23.3386 11.5538 25.7413 11.5787 27.0339 10.286L25.1588 8.4109L26.019 8.76724C27.708 9.46687 29.6444 8.66476 30.3441 6.97571L27.6803 5.8723C30.2609 5.87223 31.4476 4.2529 31.4476 2.56199Z" fill="#0061FF"/>
</g>
</g>
<g clip-path="url(#clip8_2_623)">
<g clip-path="url(#clip9_2_623)">
<path d="M11.6604 4.17437C10.7034 3.2173 9.59091 2.56201 8.10848 2.56201H0.551758C0.551758 4.25285 1.73841 5.87225 4.31902 5.87225L1.65517 6.97566C2.35487 8.66471 4.29129 9.46675 5.98034 8.76719L6.84052 8.41086L4.96541 10.286C6.25806 11.5787 8.66074 11.5538 9.95338 10.261C10.332 10.9313 11.0427 11.3893 11.8675 11.3893C11.8757 11.3893 11.8838 11.3892 11.8919 11.3892C12.9701 11.3769 13.7942 10.403 13.7942 9.32483V7.1049C12.9245 6.39134 12.4264 4.94042 11.6604 4.17437Z" fill="#0061FF"/>
</g>
</g>
</g>
</g>
<defs>
<clipPath id="clip0_2_623">
<rect width="32" height="32" fill="white" transform="translate(0 0.353027)"/>
</clipPath>
<clipPath id="clip1_2_623">
<rect width="32" height="32" fill="white" transform="translate(0 0.353027)"/>
</clipPath>
<clipPath id="clip2_2_623">
<rect width="4.75568" height="7.03818" fill="white" transform="translate(8.41309 12.5498)"/>
</clipPath>
<clipPath id="clip3_2_623">
<rect width="4.75568" height="7.03818" fill="white" transform="translate(8.41309 12.5498)"/>
</clipPath>
<clipPath id="clip4_2_623">
<rect width="13.668" height="19.8036" fill="white" transform="translate(9.93945 12.5493)"/>
</clipPath>
<clipPath id="clip5_2_623">
<rect width="13.668" height="19.8036" fill="white" transform="translate(9.93945 12.5493)"/>
</clipPath>
<clipPath id="clip6_2_623">
<rect width="17.6546" height="17.2579" fill="white" transform="translate(13.793 0.353027)"/>
</clipPath>
<clipPath id="clip7_2_623">
<rect width="17.6546" height="17.2579" fill="white" transform="translate(13.793 0.353027)"/>
</clipPath>
<clipPath id="clip8_2_623">
<rect width="13.2425" height="8.8273" fill="white" transform="translate(0.551758 2.56201)"/>
</clipPath>
<clipPath id="clip9_2_623">
<rect width="13.2425" height="8.8273" fill="white" transform="translate(0.551758 2.56201)"/>
</clipPath>
</defs>
</svg>
