<svg width="32" height="33" viewBox="0 0 32 33" fill="none" xmlns="http://www.w3.org/2000/svg">
<g clip-path="url(#clip0_2_618)">
<g clip-path="url(#clip1_2_618)">
<path d="M6.34806 32.3528H25.6513C26.8 32.3528 27.7562 31.4743 27.7562 30.3946V6.98133C27.7562 5.90144 26.8 5.01367 25.6513 5.01367H22.4693V6.80144C22.4739 7.11177 22.229 7.36856 21.919 7.37889H10.0426C9.72632 7.37128 9.47088 7.11775 9.46056 6.80144V5.01367H6.34806C5.19941 5.01367 4.24316 5.90144 4.24316 6.98133V30.3946C4.24316 31.4743 5.19941 32.3528 6.34806 32.3528ZM10.6432 14.405C10.6432 14.0976 10.8923 13.8485 11.1997 13.8485H14.0519V10.9963C14.0519 10.6889 14.301 10.4398 14.6084 10.4398H17.391C17.6983 10.4398 17.9475 10.6889 17.9475 10.9963V13.8485H20.7997C21.107 13.8485 21.3562 14.0976 21.3562 14.405V17.1876C21.3562 17.4949 21.107 17.7441 20.7997 17.7441H17.9475V20.5963C17.9475 20.9036 17.6983 21.1528 17.391 21.1528H14.6084C14.301 21.1528 14.0519 20.9036 14.0519 20.5963V17.7441H11.1997C10.8923 17.7441 10.6432 17.4949 10.6432 17.1876V14.405ZM10.8698 24.005H21.1296C21.4372 24.005 21.6861 24.2542 21.6861 24.5615C21.6861 24.8688 21.4372 25.118 21.1296 25.118H10.8698C10.5622 25.118 10.3133 24.8688 10.3133 24.5615C10.3133 24.2542 10.5622 24.005 10.8698 24.005ZM8.78284 26.7876H23.2165C23.5241 26.7876 23.7731 27.0368 23.7731 27.3441C23.7731 27.6514 23.5241 27.9006 23.2165 27.9006H8.78284C8.47523 27.9006 8.22632 27.6514 8.22632 27.3441C8.22632 27.0368 8.47523 26.7876 8.78284 26.7876Z" fill="#0061FF"/>
<path d="M21.3568 2.50955H18.7525C18.4905 2.50928 18.2639 2.3264 18.2087 2.07015C17.9935 1.07558 17.0489 0.353029 15.9625 0.353029H15.9557C14.8984 0.351942 13.9748 1.06743 13.7117 2.09134C13.6484 2.33727 13.4267 2.50928 13.1726 2.50955H10.5742V6.26607H21.3568V2.50955Z" fill="#0061FF"/>
<path d="M15.1655 17.188V20.0402H16.8351V17.188C16.8351 16.8807 17.0843 16.6315 17.3916 16.6315H20.2438V14.9619H17.3916C17.0843 14.9619 16.8351 14.7127 16.8351 14.4054V11.5532H15.1655V14.4054C15.1655 14.7127 14.9163 14.9619 14.609 14.9619H11.7568V16.6315H14.609C14.9163 16.6315 15.1655 16.8807 15.1655 17.188Z" fill="#0061FF"/>
</g>
</g>
<defs>
<clipPath id="clip0_2_618">
<rect width="32" height="32" fill="white" transform="translate(0 0.353027)"/>
</clipPath>
<clipPath id="clip1_2_618">
<rect width="32" height="32" fill="white" transform="translate(0 0.353027)"/>
</clipPath>
</defs>
</svg>
