<svg width="32" height="33" viewBox="0 0 32 33" fill="none" xmlns="http://www.w3.org/2000/svg">
<g clip-path="url(#clip0_2_613)">
<g clip-path="url(#clip1_2_613)">
<g clip-path="url(#clip2_2_613)">
<path d="M15.9909 4.57102C9.01587 -1.52964 0.14723 3.83058 0.00180337 11.0972C-0.0352563 12.9491 0.499328 14.7531 1.56343 16.4161H8.46066L9.68744 14.3714C10.0437 13.7778 10.9057 13.7586 11.2821 14.3505L13.8705 18.4178L17.6435 10.4528C17.9726 9.75775 18.9532 9.73569 19.3161 10.4096L22.5503 16.4161H30.4184C36.2468 7.30682 24.7279 -3.07058 15.9909 4.57102V4.57102Z" fill="#0061FF"/>
<path d="M21.1656 17.7979L18.5448 12.9307L14.8387 20.7544C14.5234 21.4201 13.5961 21.4779 13.2007 20.8564L10.5152 16.6366L9.79574 17.8357C9.62631 18.1181 9.32121 18.2908 8.99192 18.2908H3.04688C3.23324 18.4859 2.24 17.4946 15.3302 30.517C15.6958 30.8808 16.2868 30.8809 16.6525 30.517C29.5412 17.695 28.7498 18.4855 28.9358 18.2908H21.9909C21.646 18.2909 21.329 18.1015 21.1656 17.7979V17.7979Z" fill="#0061FF"/>
</g>
</g>
</g>
<defs>
<clipPath id="clip0_2_613">
<rect width="32" height="32" fill="white" transform="translate(0 0.353027)"/>
</clipPath>
<clipPath id="clip1_2_613">
<rect width="32" height="32" fill="white" transform="translate(0 0.353027)"/>
</clipPath>
<clipPath id="clip2_2_613">
<rect width="32" height="28.8744" fill="white" transform="translate(0 1.91553)"/>
</clipPath>
</defs>
</svg>
